<?xml version="1.0" encoding="iso-8859-1"?>
<!-- Generator: Adobe Illustrator 19.0.0, SVG Export Plug-In . SVG Version: 6.00 Build 0)  -->
<svg version="1.1" id="Layer_1" xmlns="http://www.w3.org/2000/svg" xmlns:xlink="http://www.w3.org/1999/xlink" x="0px" y="0px"
	 viewBox="0 0 512 512" style="enable-background:new 0 0 512 512;" xml:space="preserve">
<g>
	<g>
		<path d="M378.384,40.795c-54.014,0-101.531,32.55-122.384,79.943c-20.854-47.394-68.37-79.943-122.384-79.943
			C59.94,40.795,0,100.734,0,174.41c0,72.631,82.38,143.344,121.97,177.325l0.355,0.305
			c33.891,29.092,125.76,115.522,126.684,116.392c1.964,1.848,4.477,2.772,6.991,2.772c2.513,0,5.026-0.924,6.991-2.772
			c0.924-0.87,92.791-87.299,126.684-116.392l0.355-0.305C429.62,317.753,512,247.04,512,174.41
			C512,100.734,452.06,40.795,378.384,40.795z M376.743,336.259l-0.355,0.305C347.688,361.2,278.267,426.128,256,447.015
			c-22.267-20.887-91.688-85.815-120.388-110.451l-0.355-0.305C100.887,306.756,20.398,237.667,20.398,174.41
			c0-62.428,50.789-113.217,113.217-113.217c56.727,0,104.993,42.352,112.27,98.515c0.659,5.084,4.988,8.889,10.115,8.889
			c5.126,0,9.456-3.805,10.115-8.889c7.278-56.163,55.543-98.515,112.27-98.515c62.428,0,113.217,50.789,113.217,113.217
			C491.602,237.667,411.113,306.756,376.743,336.259z"/>
	</g>
</g>
</svg>
